# xmcd
#
# Track frame offsets: 
#        150
#        14225
#        28220
#        42525
#        57975
#        70395
#        83065
#        96390
#        112950
#        127250
#        140660
#        152820
#        170165
#        185835
#        200275
#        220820
#        237105
#        251830
#        266535
#        286255
#
# Disc length: 4003 seconds
#
# Revision: 0
# Processed by: cddbd v1.5.2PL0 Copyright (c) Steve Scherf et al.
# Submitted via: ExactAudioCopy v0.99pb5
#
DISCID=3f0fa114
DTITLE=Édith Piaf - La Vie en Rose [CD1]
DYEAR=2008
DGENRE=Cabaret
TTITLE0=La vie en rose
TTITLE1=Ce'st merveilleux
TTITLE2=L'accordéoniste
TTITLE3=Le vagabond
TTITLE4=Un coin tout blue
TTITLE5=Tu es partout
TTITLE6=Simple comme bonjour
TTITLE7=Mon apéro
TTITLE8=Adieu mon coeur
TTITLE9=Bal dans ma rue
TTITLE10=Paris
TTITLE11=Un homme comme les autres
TTITLE12=Monsieur Lenoble
TTITLE13=Les amants de Paris
TTITLE14=Il a chanté
TTITLE15=Le petit homme
TTITLE16=Il pleut
TTITLE17=Prisonnier de la tour
TTITLE18=C'est pour ça
TTITLE19=Notre Dame de Paris
EXTD=
EXTT0=
EXTT1=
EXTT2=
EXTT3=
EXTT4=
EXTT5=
EXTT6=
EXTT7=
EXTT8=
EXTT9=
EXTT10=
EXTT11=
EXTT12=
EXTT13=
EXTT14=
EXTT15=
EXTT16=
EXTT17=
EXTT18=
EXTT19=
PLAYORDER=
